<!DOCTYPE svg PUBLIC "-//W3C//DTD SVG 1.1//EN" "http://www.w3.org/Graphics/SVG/1.1/DTD/svg11.dtd">
<!-- Uploaded to: SVG Repo, www.svgrepo.com, Transformed by: SVG Repo Mixer Tools -->
<svg fill="#707070" width="159px" height="159px" viewBox="-2.16 -2.16 28.32 28.32" data-name="Layer 1" id="Layer_1" xmlns="http://www.w3.org/2000/svg" stroke="#707070">
<g id="SVGRepo_bgCarrier" stroke-width="0"/>
<g id="SVGRepo_tracerCarrier" stroke-linecap="round" stroke-linejoin="round" stroke="#CCCCCC" stroke-width="0.048"/>
<g id="SVGRepo_iconCarrier">
<title/>
<path d="M12,14.2A3.2,3.2,0,1,0,8.8,11,3.2,3.2,0,0,0,12,14.2Zm0-4.7A1.5,1.5,0,1,1,10.5,11,1.5,1.5,0,0,1,12,9.5ZM21,3H3A1,1,0,0,0,3,5H5V21H19V5h2a1,1,0,0,0,0-2ZM17,19H7V5H17Z"/>
</g>
</svg>