<!DOCTYPE svg PUBLIC "-//W3C//DTD SVG 1.1//EN" "http://www.w3.org/Graphics/SVG/1.1/DTD/svg11.dtd">
<!-- Uploaded to: SVG Repo, www.svgrepo.com, Transformed by: SVG Repo Mixer Tools -->
<svg width="141px" height="141px" viewBox="-14.4 -14.4 52.80 52.80" fill="none" xmlns="http://www.w3.org/2000/svg" stroke="#db0606">
<g id="SVGRepo_bgCarrier" stroke-width="0" transform="translate(9.96,9.96), scale(0.17)">
<rect x="-14.4" y="-14.4" width="52.80" height="52.80" rx="26.4" fill="#7ed0ec" strokewidth="0"/>
</g>
<g id="SVGRepo_tracerCarrier" stroke-linecap="round" stroke-linejoin="round"/>
<g id="SVGRepo_iconCarrier"> <path d="M12 7V10M12 13H12.01M15 17V18C15 18.9319 15 19.3978 14.8478 19.7654C14.6448 20.2554 14.2554 20.6448 13.7654 20.8478C13.3978 21 12.9319 21 12 21C11.0681 21 10.6022 21 10.2346 20.8478C9.74458 20.6448 9.35523 20.2554 9.15224 19.7654C9 19.3978 9 18.9319 9 18V17M5 10.2414C5 6.24208 8.13401 3 12 3C15.866 3 19 6.24208 19 10.2414C19 13.2108 17.2723 15.8826 14.8 17H9.2C6.72773 15.8826 5 13.2108 5 10.2414Z" stroke="#d30d0d" stroke-width="1.848" stroke-linecap="round" stroke-linejoin="round"/> </g>
</svg>