<!DOCTYPE svg PUBLIC "-//W3C//DTD SVG 1.1//EN" "http://www.w3.org/Graphics/SVG/1.1/DTD/svg11.dtd">
<!-- Uploaded to: SVG Repo, www.svgrepo.com, Transformed by: SVG Repo Mixer Tools -->
<svg width="159px" height="159px" viewBox="-10.32 -10.32 44.64 44.64" fill="none" xmlns="http://www.w3.org/2000/svg" stroke="#da1010">
<g id="SVGRepo_bgCarrier" stroke-width="0" transform="translate(6.72,6.72), scale(0.44)">
<rect x="-10.32" y="-10.32" width="44.64" height="44.64" rx="22.32" fill="#dee5e8" strokewidth="0"/>
</g>
<g id="SVGRepo_tracerCarrier" stroke-linecap="round" stroke-linejoin="round" stroke="#CCCCCC" stroke-width="0.096"/>
<g id="SVGRepo_iconCarrier"> <path d="M18 10C18 6.68629 15.3137 4 12 4M6 10C6 6.68629 8.68629 4 12 4M12 4V3M3 10H21M3 21H21M3 18H6M6 18H10M6 18V13M10 18H14M10 18V13M14 18H18M14 18V13M18 18H21M18 18V13" stroke="#f40b0b" stroke-width="2" stroke-linecap="round" stroke-linejoin="round"/> </g>
</svg>