<!DOCTYPE svg PUBLIC "-//W3C//DTD SVG 1.1//EN" "http://www.w3.org/Graphics/SVG/1.1/DTD/svg11.dtd">
<!-- Uploaded to: SVG Repo, www.svgrepo.com, Transformed by: SVG Repo Mixer Tools -->
<svg fill="#10d2f9" version="1.1" id="Layer_1" xmlns="http://www.w3.org/2000/svg" xmlns:xlink="http://www.w3.org/1999/xlink" viewBox="-332.8 -332.8 1177.60 1177.60" xml:space="preserve" width="133px" height="133px" stroke="#10d2f9" stroke-width="0.00512">
<g id="SVGRepo_bgCarrier" stroke-width="0" transform="translate(151.04000000000002,151.04000000000002), scale(0.41)"/>
<g id="SVGRepo_tracerCarrier" stroke-linecap="round" stroke-linejoin="round" stroke="#e00000" stroke-width="21.503999999999998"> <g> <g> <rect x="91.897" y="39.385" width="65.641" height="288.82"/> </g> </g> <g> <g> <rect y="78.769" width="52.513" height="210.051"/> </g> </g> <g> <g> <rect x="249.436" y="433.231" width="262.564" height="39.385"/> </g> </g> <g> <g> <path d="M196.923,131.601V289.55c54.762,6.055,98.217,49.537,104.275,104.296h157.974 C452.524,252.034,338.735,138.25,196.923,131.601z M253.242,243.915l15.431-36.235c52.485,22.349,93.415,63.688,115.249,116.399 l-36.387,15.071C329.67,296.023,296.183,262.202,253.242,243.915z"/> </g> </g> </g>
<g id="SVGRepo_iconCarrier"> <g> <g> <rect x="91.897" y="39.385" width="65.641" height="288.82"/> </g> </g> <g> <g> <rect y="78.769" width="52.513" height="210.051"/> </g> </g> <g> <g> <rect x="249.436" y="433.231" width="262.564" height="39.385"/> </g> </g> <g> <g> <path d="M196.923,131.601V289.55c54.762,6.055,98.217,49.537,104.275,104.296h157.974 C452.524,252.034,338.735,138.25,196.923,131.601z M253.242,243.915l15.431-36.235c52.485,22.349,93.415,63.688,115.249,116.399 l-36.387,15.071C329.67,296.023,296.183,262.202,253.242,243.915z"/> </g> </g> </g>
</svg>